PathFileType	4	(X/Y/Z)	/Users/FranklinZhao/OpenSimProject/Simulation/c3d_to_trc/SN001_static.trc
DataRate	CameraRate	NumFrames	NumMarkers	Units	OrigDataRate	OrigDataStartFrame	OrigNumFrames
200.000000	200.000000	3	72	mm	200.000000	7	14
Frame#	Time	LPSIS			RPSIS			LICR			RICR			LASIS			RASIS			RUA1			RUA2			RUA3			RUA4			RHLE			RHME			RTEMP			RHEAD			LHEAD			LTEMP			RACR			LACR			LUA1			LUA2			LUA3			LUA4			LHLE			LHME			STER			XPRO			C7			T4			T8			T10			LFA1			LFA2			LFA3			LRSP			LUSP			RFA1			RFA2			RFA3			RRSP			RUSP			LTH1			LTH2			LTH3			LTH4			LFLE			LFME			LSK1			LSK2			LSK3			LSK4			LTAM			LFAL			LFCC			LFMT1			LFMT2			LFMT5			RTH1			RTH2			RTH3			RTH4			RFLE			RFME			RSK1			RSK2			RSK3			RSK4			RFAL			RTAM			RFCC			RFMT1			RFMT2			RFMT5			
		X1	Y1	Z1	X2	Y2	Z2	X3	Y3	Z3	X4	Y4	Z4	X5	Y5	Z5	X6	Y6	Z6	X7	Y7	Z7	X8	Y8	Z8	X9	Y9	Z9	X10	Y10	Z10	X11	Y11	Z11	X12	Y12	Z12	X13	Y13	Z13	X14	Y14	Z14	X15	Y15	Z15	X16	Y16	Z16	X17	Y17	Z17	X18	Y18	Z18	X19	Y19	Z19	X20	Y20	Z20	X21	Y21	Z21	X22	Y22	Z22	X23	Y23	Z23	X24	Y24	Z24	X25	Y25	Z25	X26	Y26	Z26	X27	Y27	Z27	X28	Y28	Z28	X29	Y29	Z29	X30	Y30	Z30	X31	Y31	Z31	X32	Y32	Z32	X33	Y33	Z33	X34	Y34	Z34	X35	Y35	Z35	X36	Y36	Z36	X37	Y37	Z37	X38	Y38	Z38	X39	Y39	Z39	X40	Y40	Z40	X41	Y41	Z41	X42	Y42	Z42	X43	Y43	Z43	X44	Y44	Z44	X45	Y45	Z45	X46	Y46	Z46	X47	Y47	Z47	X48	Y48	Z48	X49	Y49	Z49	X50	Y50	Z50	X51	Y51	Z51	X52	Y52	Z52	X53	Y53	Z53	X54	Y54	Z54	X55	Y55	Z55	X56	Y56	Z56	X57	Y57	Z57	X58	Y58	Z58	X59	Y59	Z59	X60	Y60	Z60	X61	Y61	Z61	X62	Y62	Z62	X63	Y63	Z63	X64	Y64	Z64	X65	Y65	Z65	X66	Y66	Z66	X67	Y67	Z67	X68	Y68	Z68	X69	Y69	Z69	X70	Y70	Z70	X71	Y71	Z71	X72	Y72	Z72	

8	0.035	1604.848266601562	276.728515625	1006.564514160156	1604.3916015625	354.08984375	1009.5712890625	1585.58984375	183.8935241699219	1066.193359375	1573.067016601562	445.38330078125	1091.363525390625	1413.450927734375	185.3719787597656	989.2355346679688	1407.055541992188	444.3958435058594	994.4843139648438	1560.083251953125	562.1958618164062	1369.80322265625	1498.8876953125	592.7647094726562	1400.696166992188	1480.655395507812	639.9960327148438	1346.322021484375	1538.9208984375	616.5449829101562	1306.236328125	1500.467651367188	665.2901611328125	1244.161987304688	1449.446166992188	613.9824829101562	1218.503662109375	1410.582885742188	390.9225158691406	1708.076416015625	1368.028442382812	353.8391723632812	1714.8740234375	1369.52880859375	271.9627380371094	1712.369750976562	1419.817260742188	233.8229675292969	1701.09033203125	1533.001831054688	480.7998657226562	1522.943237304688	1548.317260742188	128.5306549072266	1526.11767578125	1517.509155273438	30.13642883300781	1408.538818359375	1566.61962890625	52.83818435668945	1354.946655273438	1539.955200195312	0.7897768616676331	1290.7666015625	1491.337158203125	-21.31161689758301	1342.937744140625	1494.556640625	-42.04331970214844	1249.188110351562	1458.135864257812	11.33386611938477	1217.3310546875	1448.480346679688	302.0863342285156	1455.118896484375	1391.316528320312	294.9400329589844	1250.201782226562	1577.134521484375	312.9368286132812	1559.820922851562	1635.970336914062	307.5346374511719	1450.137451171875	1635.952880859375	311.1300048828125	1314.70166015625	1630.478271484375	306.273193359375	1269.677856445312	1447.246459960938	-224.2535400390625	1140.436767578125	1472.887573242188	-201.4371185302734	1108.141723632812	1437.34033203125	-229.3333740234375	1107.559814453125	1389.997436523438	-248.3598022460938	1101.084838867188	1413.2080078125	-210.4923858642578	1047.661499023438	1506.470825195312	809.0110473632812	1120.3779296875	1487.0615234375	837.3238525390625	1152.037963867188	1480.616455078125	846.0713500976562	1118.79931640625	1449.44580078125	889.9827880859375	1099.57373046875	1456.798461914062	844.4166870117188	1056.186157226562	1489.700439453125	123.1142654418945	716.0194702148438	1538.835693359375	134.8140258789062	719.6876220703125	1553.059326171875	143.3660583496094	612.718017578125	1490.646850585938	126.3728561401367	613.1970825195312	1534.473388671875	142.8026580810547	520.2364501953125	1519.39697265625	259.1541442871094	492.1104431152344	1568.789794921875	100.2621307373047	350.7546081542969	1627.009033203125	122.5631103515625	352.7002258300781	1631.099609375	127.7570419311523	264.8757629394531	1571.974731445312	102.7067184448242	267.3360595703125	1551.120849609375	193.7673187255859	85.34194183349609	1607.941162109375	133.4251556396484	76.623779296875	1627.210693359375	188.4129333496094	36.59690475463867	1421.721923828125	131.6902008056641	30.25040435791016	1433.397583007812	93.66847991943359	31.13791465759277	1491.874389648438	58.67103958129883	23.51816558837891	1513.99072265625	499.5875244140625	748.52392578125	1457.809936523438	497.7508239746094	727.6441040039062	1460.480712890625	489.6179504394531	640.987060546875	1524.7431640625	489.4725036621094	648.2725830078125	1525.113037109375	480.5598754882812	536.312744140625	1520.036987304688	361.9995422363281	500.8048400878906	1590.988647460938	512.145751953125	366.3238220214844	1534.481567382812	518.57958984375	383.5120239257812	1533.415161132812	513.7688598632812	274.3527526855469	1597.451538085938	511.4593200683594	283.5632019042969	1594.142211914062	488.0053100585938	74.07434844970703	1550.378784179688	414.7418823242188	87.41112518310547	1623.569091796875	439.9516296386719	42.78585815429688	1422.923583984375	454.8883666992188	30.11843872070312	1421.871826171875	499.875732421875	30.87719345092773	1468.192504882812	547.1471557617188	21.13862228393555	
9	0.04	1604.885131835938	276.7094116210938	1006.526916503906	1604.44384765625	354.0634765625	1009.557434082031	1585.587646484375	183.8823547363281	1066.177612304688	1573.11669921875	445.3892211914062	1091.380737304688	1413.465454101562	185.3967742919922	989.2282104492188	1407.070678710938	444.3873596191406	994.4877319335938	1560.136474609375	562.2060546875	1369.811401367188	1498.912963867188	592.773681640625	1400.711791992188	1480.714477539062	639.9821166992188	1346.29833984375	1538.9638671875	616.532958984375	1306.257690429688	1500.488403320312	665.2864990234375	1244.153198242188	1449.524169921875	613.991943359375	1218.462890625	1410.581909179688	390.9442749023438	1708.082153320312	1368.100952148438	353.8548889160156	1714.872436523438	1369.513427734375	271.9619445800781	1712.39794921875	1419.798583984375	233.8413238525391	1701.095458984375	1533.05908203125	480.7879333496094	1522.946899414062	1548.31103515625	128.5010681152344	1526.122680664062	1517.540649414062	30.12680244445801	1408.519775390625	1566.69287109375	52.8087272644043	1354.957275390625	1539.968017578125	0.7673676609992981	1290.789672851562	1491.3818359375	-21.31572151184082	1342.978881835938	1494.577026367188	-42.05504608154297	1249.142944335938	1458.117431640625	11.27811908721924	1217.353759765625	1448.47998046875	302.0971374511719	1455.059326171875	1391.300415039062	294.9486083984375	1250.169555664062	1577.16845703125	312.9188842773438	1559.830078125	1635.992553710938	307.5332946777344	1450.155151367188	1635.963500976562	311.1009521484375	1314.73291015625	1630.466430664062	306.2618408203125	1269.690185546875	1447.1689453125	-224.3139801025391	1140.546630859375	1472.77978515625	-201.56103515625	1108.236083984375	1437.25341796875	-229.4023132324219	1107.733520507812	1389.864379882812	-248.3690643310547	1101.177490234375	1413.138793945312	-210.5780334472656	1047.74951171875	1506.486083984375	809.1040649414062	1120.383544921875	1487.056030273438	837.38916015625	1152.081787109375	1480.5693359375	846.1026611328125	1118.804931640625	1449.429931640625	890.0109252929688	1099.623901367188	1456.808837890625	844.4533081054688	1056.18359375	1489.879760742188	123.6449661254883	715.7177734375	1538.887817382812	134.9507904052734	719.5667724609375	1553.058837890625	143.3682708740234	612.7221069335938	1490.629760742188	126.3336639404297	613.2006225585938	1534.483276367188	142.796875	520.2662963867188	1519.380737304688	259.1623840332031	492.1398315429688	1568.803955078125	100.2586822509766	350.7725524902344	1627.004638671875	122.5869979858398	352.6893310546875	1631.088623046875	127.7205047607422	264.877685546875	1571.967041015625	102.7070922851562	267.321044921875	1551.072875976562	193.7711791992188	85.33165740966797	1608.045043945312	133.3566131591797	76.62429809570312	1627.20068359375	188.3908081054688	36.5641975402832	1421.710327148438	131.6558380126953	30.22013664245605	1433.383911132812	93.66465759277344	31.13982772827148	1491.865600585938	58.66974258422852	23.54712867736816	1514.003662109375	499.6210632324219	748.5267944335938	1457.838623046875	497.727294921875	727.6593017578125	1460.53466796875	489.6195373535156	640.9943237304688	1524.755981445312	489.4932861328125	648.3040771484375	1525.083251953125	480.5715942382812	536.3270874023438	1520.024536132812	362.0380554199219	500.7408447265625	1590.982666015625	512.1336669921875	366.2994995117188	1534.4912109375	518.5999145507812	383.5164184570312	1533.420776367188	513.71826171875	274.3056030273438	1597.470458984375	511.5063781738281	283.600341796875	1594.134155273438	487.9692077636719	74.0859375	1550.297973632812	414.9866943359375	87.48721313476562	1623.569458007812	439.8487243652344	42.71929931640625	1422.888305664062	454.9508361816406	30.07125091552734	1421.858276367188	499.86572265625	30.89025497436523	1468.199462890625	547.1515502929688	21.11144256591797	
10	0.045	1604.817626953125	276.6854858398438	1006.604858398438	1604.419189453125	354.083251953125	1009.551086425781	1585.576293945312	183.9086456298828	1066.233154296875	1573.109985351562	445.3877563476562	1091.421508789062	1413.471069335938	185.3873291015625	989.2418823242188	1407.077270507812	444.3496398925781	994.468994140625	1560.163696289062	562.2263793945312	1369.865234375	1498.943481445312	592.7735595703125	1400.700073242188	1480.723999023438	640.010498046875	1346.3056640625	1538.968017578125	616.586181640625	1306.279418945312	1500.53125	665.3305053710938	1244.177368164062	1449.5751953125	613.9840698242188	1218.469604492188	1410.641357421875	391.0322570800781	1708.066040039062	1368.109741210938	353.911865234375	1714.872192382812	1369.55810546875	272.0577087402344	1712.384643554688	1419.841918945312	233.8574371337891	1701.113525390625	1533.05078125	480.8187255859375	1522.977294921875	1548.34228515625	128.5532531738281	1526.148803710938	1517.525268554688	30.12214469909668	1408.545776367188	1566.6689453125	52.79172515869141	1355.009155273438	1540.022216796875	0.7450973391532898	1290.833374023438	1491.376098632812	-21.30681991577148	1343.001342773438	1494.587036132812	-42.06943511962891	1249.27001953125	1458.153198242188	11.25600051879883	1217.39404296875	1448.499877929688	302.1082458496094	1455.040771484375	1391.321899414062	294.9398498535156	1250.16259765625	1577.169921875	312.9338989257812	1559.868408203125	1636.029663085938	307.5121154785156	1450.172241210938	1635.951416015625	311.1065368652344	1314.730102539062	1630.508666992188	306.2603759765625	1269.71044921875	1447.075805664062	-224.3688201904297	1140.641967773438	1472.689453125	-201.6826324462891	1108.352783203125	1437.16162109375	-229.4817657470703	1107.847900390625	1389.739501953125	-248.4269104003906	1101.261962890625	1413.09521484375	-210.6770935058594	1047.934326171875	1506.487182617188	809.1409301757812	1120.43701171875	1487.042358398438	837.4207153320312	1152.136474609375	1480.568481445312	846.1543579101562	1118.856689453125	1449.418701171875	890.019287109375	1099.647338867188	1456.785522460938	844.5011596679688	1056.223388671875	1489.699584960938	123.1383056640625	715.9996948242188	1538.80029296875	134.8003234863281	719.7162475585938	1553.04052734375	143.3619842529297	612.7293090820312	1490.602416992188	126.3544921875	613.2313842773438	1534.447143554688	142.7859039306641	520.2530517578125	1519.425537109375	259.1444396972656	492.1048278808594	1568.768432617188	100.224479675293	350.7677917480469	1626.999755859375	122.5459671020508	352.7198791503906	1631.106323242188	127.7239074707031	264.8851623535156	1571.959838867188	102.6881561279297	267.3392333984375	1551.103759765625	193.7637634277344	85.30124664306641	1608.056030273438	133.3363342285156	76.63766479492188	1627.190063476562	188.4080657958984	36.5892219543457	1421.721557617188	131.6940002441406	30.21607398986816	1433.380126953125	93.66131591796875	31.14296722412109	1491.867919921875	58.65937423706055	23.51907920837402	1514.003540039062	499.6639099121094	748.533203125	1457.850341796875	497.7198486328125	727.6268920898438	1460.4990234375	489.6201477050781	640.9981079101562	1524.778198242188	489.479736328125	648.2894287109375	1525.080688476562	480.5659484863281	536.3225708007812	1520.001953125	361.984130859375	500.7805480957031	1590.945922851562	512.1805419921875	366.2917785644531	1534.458740234375	518.6148681640625	383.4942321777344	1533.4296875	513.7802124023438	274.3255004882812	1597.50341796875	511.5063781738281	283.6333923339844	1594.137451171875	487.99169921875	74.08409881591797	1550.304809570312	414.9809265136719	87.50377655029297	1623.52392578125	439.911376953125	42.72743988037109	1422.928466796875	454.89990234375	30.10899543762207	1421.86767578125	499.8653564453125	30.89751243591309	1468.171020507812	547.1744995117188	21.12273597717285	
